<mxfile host="app.diagrams.net" modified="2022-03-16T14:06:47.570Z" agent="5.0 (Macintosh)" etag="6JAfDKQ-zN6UDcKy2-sv" version="16.6.5" type="github">
  <diagram id="x7MlGXlHcSR0PO5Mygpb" name="Page-1">
    <mxGraphModel dx="2066" dy="1152" grid="1" gridSize="10" guides="1" tooltips="1" connect="1" arrows="1" fold="1" page="1" pageScale="1" pageWidth="1100" pageHeight="850" math="0" shadow="0">
      <root>
        <mxCell id="0" />
        <mxCell id="1" parent="0" />
        <mxCell id="1jjd0BEGG7qsmMhBdb2S-7" value="" style="shape=actor;whiteSpace=wrap;html=1;fillColor=#d5e8d4;strokeColor=#82b366;" parent="1" vertex="1">
          <mxGeometry x="515" y="119" width="40" height="60" as="geometry" />
        </mxCell>
        <mxCell id="1jjd0BEGG7qsmMhBdb2S-9" value="&lt;div style=&quot;font-size: 18px;&quot;&gt;GitHub&lt;/div&gt;&lt;div style=&quot;font-size: 18px;&quot;&gt;(remote repository)&lt;/div&gt;" style="ellipse;shape=cloud;whiteSpace=wrap;html=1;fontSize=18;" parent="1" vertex="1">
          <mxGeometry x="420" y="202.63" width="230" height="92.75" as="geometry" />
        </mxCell>
        <mxCell id="1jjd0BEGG7qsmMhBdb2S-28" value="" style="shape=actor;whiteSpace=wrap;html=1;fillColor=#e1d5e7;strokeColor=#9673a6;" parent="1" vertex="1">
          <mxGeometry x="718" y="119" width="40" height="60" as="geometry" />
        </mxCell>
        <mxCell id="kwDQs5xklp46Bv3Ky6c--1" value="&lt;div style=&quot;font-size: 18px;&quot;&gt;RStudio&lt;/div&gt;&lt;div style=&quot;font-size: 18px;&quot;&gt;(local repository)&lt;br style=&quot;font-size: 18px;&quot;&gt;&lt;/div&gt;" style="rounded=1;whiteSpace=wrap;html=1;fontSize=18;" parent="1" vertex="1">
          <mxGeometry x="663" y="219" width="150" height="60" as="geometry" />
        </mxCell>
        <mxCell id="kwDQs5xklp46Bv3Ky6c--2" value="&lt;div style=&quot;font-size: 18px;&quot;&gt;RStudio&lt;/div&gt;&lt;div style=&quot;font-size: 18px;&quot;&gt;(local repository)&lt;br style=&quot;font-size: 18px;&quot;&gt;&lt;/div&gt;" style="rounded=1;whiteSpace=wrap;html=1;fontSize=18;" parent="1" vertex="1">
          <mxGeometry x="260" y="219" width="150" height="60" as="geometry" />
        </mxCell>
        <mxCell id="kwDQs5xklp46Bv3Ky6c--14" value="" style="shape=actor;whiteSpace=wrap;html=1;fillColor=#d5e8d4;strokeColor=#82b366;" parent="1" vertex="1">
          <mxGeometry x="320" y="119" width="40" height="60" as="geometry" />
        </mxCell>
        <mxCell id="kwDQs5xklp46Bv3Ky6c--17" value="" style="endArrow=classic;html=1;rounded=0;fontSize=17;strokeColor=#CCCCCC;strokeWidth=3;edgeStyle=orthogonalEdgeStyle;elbow=vertical;curved=1;" parent="1" edge="1">
          <mxGeometry relative="1" as="geometry">
            <mxPoint x="539" y="100.25" as="sourcePoint" />
            <mxPoint x="736.5" y="100" as="targetPoint" />
            <Array as="points">
              <mxPoint x="539.5" y="30" />
              <mxPoint x="736.5" y="30" />
              <mxPoint x="736.5" y="100" />
            </Array>
          </mxGeometry>
        </mxCell>
        <mxCell id="kwDQs5xklp46Bv3Ky6c--18" value="clone" style="edgeLabel;resizable=0;html=1;align=center;verticalAlign=middle;fontSize=18;strokeWidth=3;fillColor=#FFFFFF;" parent="kwDQs5xklp46Bv3Ky6c--17" connectable="0" vertex="1">
          <mxGeometry relative="1" as="geometry" />
        </mxCell>
        <mxCell id="kwDQs5xklp46Bv3Ky6c--19" value="" style="endArrow=classic;html=1;rounded=0;fontSize=17;strokeColor=#CCCCCC;strokeWidth=3;edgeStyle=orthogonalEdgeStyle;elbow=vertical;curved=1;" parent="1" edge="1">
          <mxGeometry relative="1" as="geometry">
            <mxPoint x="537.5" y="100" as="sourcePoint" />
            <mxPoint x="340" y="100.25" as="targetPoint" />
            <Array as="points">
              <mxPoint x="537.5" y="100" />
              <mxPoint x="537.5" y="30" />
              <mxPoint x="340.5" y="30" />
            </Array>
          </mxGeometry>
        </mxCell>
        <mxCell id="kwDQs5xklp46Bv3Ky6c--20" value="clone" style="edgeLabel;resizable=0;html=1;align=center;verticalAlign=middle;fontSize=18;strokeWidth=3;fillColor=#FFFFFF;" parent="kwDQs5xklp46Bv3Ky6c--19" connectable="0" vertex="1">
          <mxGeometry relative="1" as="geometry" />
        </mxCell>
        <mxCell id="kwDQs5xklp46Bv3Ky6c--36" value="" style="ellipse;whiteSpace=wrap;html=1;aspect=fixed;fillColor=#d5e8d4;strokeColor=#82b366;strokeWidth=3;" parent="1" vertex="1">
          <mxGeometry x="328.5" y="360.75" width="23" height="23" as="geometry" />
        </mxCell>
        <mxCell id="kwDQs5xklp46Bv3Ky6c--37" value="" style="endArrow=none;html=1;rounded=0;fillColor=#d5e8d4;strokeColor=#33001A;strokeWidth=3;exitX=0.5;exitY=1;exitDx=0;exitDy=0;entryX=0.5;entryY=0;entryDx=0;entryDy=0;" parent="1" source="kwDQs5xklp46Bv3Ky6c--40" target="kwDQs5xklp46Bv3Ky6c--36" edge="1">
          <mxGeometry width="50" height="50" relative="1" as="geometry">
            <mxPoint x="246.62" y="310.75" as="sourcePoint" />
            <mxPoint x="340" y="350.75" as="targetPoint" />
          </mxGeometry>
        </mxCell>
        <mxCell id="kwDQs5xklp46Bv3Ky6c--38" value="" style="ellipse;whiteSpace=wrap;html=1;aspect=fixed;fillColor=#d5e8d4;strokeColor=#82b366;strokeWidth=3;" parent="1" vertex="1">
          <mxGeometry x="328.5" y="400.75" width="23" height="23" as="geometry" />
        </mxCell>
        <mxCell id="kwDQs5xklp46Bv3Ky6c--39" value="" style="endArrow=none;html=1;rounded=0;fillColor=#d5e8d4;strokeColor=#33001A;strokeWidth=3;exitX=0.5;exitY=1;exitDx=0;exitDy=0;entryX=0.5;entryY=0;entryDx=0;entryDy=0;" parent="1" source="kwDQs5xklp46Bv3Ky6c--36" target="kwDQs5xklp46Bv3Ky6c--38" edge="1">
          <mxGeometry width="50" height="50" relative="1" as="geometry">
            <mxPoint x="365" y="383.75" as="sourcePoint" />
            <mxPoint x="365" y="420.75" as="targetPoint" />
          </mxGeometry>
        </mxCell>
        <mxCell id="kwDQs5xklp46Bv3Ky6c--40" value="" style="ellipse;whiteSpace=wrap;html=1;aspect=fixed;fillColor=#d5e8d4;strokeColor=#82b366;strokeWidth=3;" parent="1" vertex="1">
          <mxGeometry x="328.5" y="323.75" width="23" height="23" as="geometry" />
        </mxCell>
        <mxCell id="kwDQs5xklp46Bv3Ky6c--48" value="" style="endArrow=classic;html=1;rounded=0;strokeColor=#CCCCCC;strokeWidth=3;" parent="1" edge="1">
          <mxGeometry relative="1" as="geometry">
            <mxPoint x="370" y="452" as="sourcePoint" />
            <mxPoint x="510" y="452" as="targetPoint" />
          </mxGeometry>
        </mxCell>
        <mxCell id="kwDQs5xklp46Bv3Ky6c--49" value="&lt;div style=&quot;font-size: 18px;&quot;&gt;push&lt;/div&gt;" style="edgeLabel;resizable=0;html=1;align=center;verticalAlign=middle;fontSize=18;" parent="kwDQs5xklp46Bv3Ky6c--48" connectable="0" vertex="1">
          <mxGeometry relative="1" as="geometry" />
        </mxCell>
        <mxCell id="kwDQs5xklp46Bv3Ky6c--52" value="" style="ellipse;whiteSpace=wrap;html=1;aspect=fixed;fillColor=#d5e8d4;strokeColor=#82b366;strokeWidth=3;" parent="1" vertex="1">
          <mxGeometry x="328.5" y="440" width="23" height="23" as="geometry" />
        </mxCell>
        <mxCell id="kwDQs5xklp46Bv3Ky6c--53" value="" style="endArrow=none;html=1;rounded=0;fillColor=#d5e8d4;strokeColor=#33001A;strokeWidth=3;exitX=0.5;exitY=1;exitDx=0;exitDy=0;entryX=0.5;entryY=0;entryDx=0;entryDy=0;" parent="1" source="kwDQs5xklp46Bv3Ky6c--38" target="kwDQs5xklp46Bv3Ky6c--52" edge="1">
          <mxGeometry width="50" height="50" relative="1" as="geometry">
            <mxPoint x="350" y="393.75" as="sourcePoint" />
            <mxPoint x="350" y="410.75" as="targetPoint" />
          </mxGeometry>
        </mxCell>
        <mxCell id="kwDQs5xklp46Bv3Ky6c--54" value="" style="endArrow=classic;html=1;rounded=0;fontSize=17;strokeColor=#CCCCCC;strokeWidth=3;edgeStyle=orthogonalEdgeStyle;elbow=vertical;curved=1;" parent="1" edge="1">
          <mxGeometry relative="1" as="geometry">
            <mxPoint x="320" y="410" as="sourcePoint" />
            <mxPoint x="320" y="455" as="targetPoint" />
            <Array as="points">
              <mxPoint x="320" y="410" />
              <mxPoint x="270" y="410" />
              <mxPoint x="270" y="455" />
            </Array>
          </mxGeometry>
        </mxCell>
        <mxCell id="kwDQs5xklp46Bv3Ky6c--55" value="commit" style="edgeLabel;resizable=0;html=1;align=center;verticalAlign=middle;fontSize=18;strokeWidth=3;fillColor=#FFFFFF;" parent="kwDQs5xklp46Bv3Ky6c--54" connectable="0" vertex="1">
          <mxGeometry relative="1" as="geometry" />
        </mxCell>
        <mxCell id="kwDQs5xklp46Bv3Ky6c--63" value="" style="ellipse;whiteSpace=wrap;html=1;aspect=fixed;fillColor=#e1d5e7;strokeColor=#9673a6;strokeWidth=3;" parent="1" vertex="1">
          <mxGeometry x="328.5" y="480" width="23" height="23" as="geometry" />
        </mxCell>
        <mxCell id="kwDQs5xklp46Bv3Ky6c--64" value="" style="endArrow=none;html=1;rounded=0;fillColor=#d5e8d4;strokeColor=#33001A;strokeWidth=3;exitX=0.5;exitY=1;exitDx=0;exitDy=0;entryX=0.5;entryY=0;entryDx=0;entryDy=0;" parent="1" source="kwDQs5xklp46Bv3Ky6c--52" target="kwDQs5xklp46Bv3Ky6c--63" edge="1">
          <mxGeometry width="50" height="50" relative="1" as="geometry">
            <mxPoint x="350" y="433.75" as="sourcePoint" />
            <mxPoint x="350" y="450" as="targetPoint" />
          </mxGeometry>
        </mxCell>
        <mxCell id="kwDQs5xklp46Bv3Ky6c--65" value="" style="ellipse;whiteSpace=wrap;html=1;aspect=fixed;fillColor=#d5e8d4;strokeColor=#82b366;strokeWidth=3;" parent="1" vertex="1">
          <mxGeometry x="523.5" y="360.75" width="23" height="23" as="geometry" />
        </mxCell>
        <mxCell id="kwDQs5xklp46Bv3Ky6c--66" value="" style="endArrow=none;html=1;rounded=0;fillColor=#d5e8d4;strokeColor=#33001A;strokeWidth=3;exitX=0.5;exitY=1;exitDx=0;exitDy=0;entryX=0.5;entryY=0;entryDx=0;entryDy=0;" parent="1" source="kwDQs5xklp46Bv3Ky6c--69" target="kwDQs5xklp46Bv3Ky6c--65" edge="1">
          <mxGeometry width="50" height="50" relative="1" as="geometry">
            <mxPoint x="441.62" y="310.75" as="sourcePoint" />
            <mxPoint x="535" y="350.75" as="targetPoint" />
          </mxGeometry>
        </mxCell>
        <mxCell id="kwDQs5xklp46Bv3Ky6c--67" value="" style="ellipse;whiteSpace=wrap;html=1;aspect=fixed;fillColor=#d5e8d4;strokeColor=#82b366;strokeWidth=3;" parent="1" vertex="1">
          <mxGeometry x="523.5" y="400.75" width="23" height="23" as="geometry" />
        </mxCell>
        <mxCell id="kwDQs5xklp46Bv3Ky6c--68" value="" style="endArrow=none;html=1;rounded=0;fillColor=#d5e8d4;strokeColor=#33001A;strokeWidth=3;exitX=0.5;exitY=1;exitDx=0;exitDy=0;entryX=0.5;entryY=0;entryDx=0;entryDy=0;" parent="1" source="kwDQs5xklp46Bv3Ky6c--65" target="kwDQs5xklp46Bv3Ky6c--67" edge="1">
          <mxGeometry width="50" height="50" relative="1" as="geometry">
            <mxPoint x="560" y="383.75" as="sourcePoint" />
            <mxPoint x="560" y="420.75" as="targetPoint" />
          </mxGeometry>
        </mxCell>
        <mxCell id="kwDQs5xklp46Bv3Ky6c--69" value="" style="ellipse;whiteSpace=wrap;html=1;aspect=fixed;fillColor=#d5e8d4;strokeColor=#82b366;strokeWidth=3;" parent="1" vertex="1">
          <mxGeometry x="523.5" y="323.75" width="23" height="23" as="geometry" />
        </mxCell>
        <mxCell id="kwDQs5xklp46Bv3Ky6c--70" value="" style="ellipse;whiteSpace=wrap;html=1;aspect=fixed;fillColor=#d5e8d4;strokeColor=#82b366;strokeWidth=3;" parent="1" vertex="1">
          <mxGeometry x="523.5" y="440" width="23" height="23" as="geometry" />
        </mxCell>
        <mxCell id="kwDQs5xklp46Bv3Ky6c--71" value="" style="endArrow=none;html=1;rounded=0;fillColor=#d5e8d4;strokeColor=#33001A;strokeWidth=3;exitX=0.5;exitY=1;exitDx=0;exitDy=0;entryX=0.5;entryY=0;entryDx=0;entryDy=0;" parent="1" source="kwDQs5xklp46Bv3Ky6c--67" target="kwDQs5xklp46Bv3Ky6c--70" edge="1">
          <mxGeometry width="50" height="50" relative="1" as="geometry">
            <mxPoint x="545" y="393.75" as="sourcePoint" />
            <mxPoint x="545" y="410.75" as="targetPoint" />
          </mxGeometry>
        </mxCell>
        <mxCell id="kwDQs5xklp46Bv3Ky6c--72" value="" style="ellipse;whiteSpace=wrap;html=1;aspect=fixed;fillColor=#e1d5e7;strokeColor=#9673a6;strokeWidth=3;" parent="1" vertex="1">
          <mxGeometry x="523.5" y="480" width="23" height="23" as="geometry" />
        </mxCell>
        <mxCell id="kwDQs5xklp46Bv3Ky6c--73" value="" style="endArrow=none;html=1;rounded=0;fillColor=#d5e8d4;strokeColor=#33001A;strokeWidth=3;exitX=0.5;exitY=1;exitDx=0;exitDy=0;entryX=0.5;entryY=0;entryDx=0;entryDy=0;" parent="1" source="kwDQs5xklp46Bv3Ky6c--70" target="kwDQs5xklp46Bv3Ky6c--72" edge="1">
          <mxGeometry width="50" height="50" relative="1" as="geometry">
            <mxPoint x="545" y="433.75" as="sourcePoint" />
            <mxPoint x="545" y="450" as="targetPoint" />
          </mxGeometry>
        </mxCell>
        <mxCell id="kwDQs5xklp46Bv3Ky6c--74" value="" style="ellipse;whiteSpace=wrap;html=1;aspect=fixed;fillColor=#d5e8d4;strokeColor=#82b366;strokeWidth=3;" parent="1" vertex="1">
          <mxGeometry x="726.5" y="359.63" width="23" height="23" as="geometry" />
        </mxCell>
        <mxCell id="kwDQs5xklp46Bv3Ky6c--75" value="" style="endArrow=none;html=1;rounded=0;fillColor=#d5e8d4;strokeColor=#33001A;strokeWidth=3;exitX=0.5;exitY=1;exitDx=0;exitDy=0;entryX=0.5;entryY=0;entryDx=0;entryDy=0;" parent="1" source="kwDQs5xklp46Bv3Ky6c--78" target="kwDQs5xklp46Bv3Ky6c--74" edge="1">
          <mxGeometry width="50" height="50" relative="1" as="geometry">
            <mxPoint x="644.62" y="309.63" as="sourcePoint" />
            <mxPoint x="738" y="349.63" as="targetPoint" />
          </mxGeometry>
        </mxCell>
        <mxCell id="kwDQs5xklp46Bv3Ky6c--76" value="" style="ellipse;whiteSpace=wrap;html=1;aspect=fixed;fillColor=#d5e8d4;strokeColor=#82b366;strokeWidth=3;" parent="1" vertex="1">
          <mxGeometry x="726.5" y="399.63" width="23" height="23" as="geometry" />
        </mxCell>
        <mxCell id="kwDQs5xklp46Bv3Ky6c--77" value="" style="endArrow=none;html=1;rounded=0;fillColor=#d5e8d4;strokeColor=#33001A;strokeWidth=3;exitX=0.5;exitY=1;exitDx=0;exitDy=0;entryX=0.5;entryY=0;entryDx=0;entryDy=0;" parent="1" source="kwDQs5xklp46Bv3Ky6c--74" target="kwDQs5xklp46Bv3Ky6c--76" edge="1">
          <mxGeometry width="50" height="50" relative="1" as="geometry">
            <mxPoint x="763" y="382.63" as="sourcePoint" />
            <mxPoint x="763" y="419.63" as="targetPoint" />
          </mxGeometry>
        </mxCell>
        <mxCell id="kwDQs5xklp46Bv3Ky6c--78" value="" style="ellipse;whiteSpace=wrap;html=1;aspect=fixed;fillColor=#d5e8d4;strokeColor=#82b366;strokeWidth=3;" parent="1" vertex="1">
          <mxGeometry x="726.5" y="322.63" width="23" height="23" as="geometry" />
        </mxCell>
        <mxCell id="kwDQs5xklp46Bv3Ky6c--79" value="" style="ellipse;whiteSpace=wrap;html=1;aspect=fixed;fillColor=#d5e8d4;strokeColor=#82b366;strokeWidth=3;" parent="1" vertex="1">
          <mxGeometry x="726.5" y="438.88" width="23" height="23" as="geometry" />
        </mxCell>
        <mxCell id="kwDQs5xklp46Bv3Ky6c--80" value="" style="endArrow=none;html=1;rounded=0;fillColor=#d5e8d4;strokeColor=#33001A;strokeWidth=3;exitX=0.5;exitY=1;exitDx=0;exitDy=0;entryX=0.5;entryY=0;entryDx=0;entryDy=0;" parent="1" source="kwDQs5xklp46Bv3Ky6c--76" target="kwDQs5xklp46Bv3Ky6c--79" edge="1">
          <mxGeometry width="50" height="50" relative="1" as="geometry">
            <mxPoint x="748" y="392.63" as="sourcePoint" />
            <mxPoint x="748" y="409.63" as="targetPoint" />
          </mxGeometry>
        </mxCell>
        <mxCell id="kwDQs5xklp46Bv3Ky6c--81" value="" style="ellipse;whiteSpace=wrap;html=1;aspect=fixed;fillColor=#e1d5e7;strokeColor=#9673a6;strokeWidth=3;" parent="1" vertex="1">
          <mxGeometry x="726.5" y="478.88" width="23" height="23" as="geometry" />
        </mxCell>
        <mxCell id="kwDQs5xklp46Bv3Ky6c--82" value="" style="endArrow=none;html=1;rounded=0;fillColor=#d5e8d4;strokeColor=#33001A;strokeWidth=3;exitX=0.5;exitY=1;exitDx=0;exitDy=0;entryX=0.5;entryY=0;entryDx=0;entryDy=0;" parent="1" source="kwDQs5xklp46Bv3Ky6c--79" target="kwDQs5xklp46Bv3Ky6c--81" edge="1">
          <mxGeometry width="50" height="50" relative="1" as="geometry">
            <mxPoint x="748" y="432.63" as="sourcePoint" />
            <mxPoint x="748" y="448.88" as="targetPoint" />
          </mxGeometry>
        </mxCell>
        <mxCell id="kwDQs5xklp46Bv3Ky6c--83" value="" style="endArrow=classic;html=1;rounded=0;fontSize=17;strokeColor=#CCCCCC;strokeWidth=3;edgeStyle=orthogonalEdgeStyle;elbow=vertical;curved=1;" parent="1" edge="1">
          <mxGeometry relative="1" as="geometry">
            <mxPoint x="758" y="450.03" as="sourcePoint" />
            <mxPoint x="758" y="495.03" as="targetPoint" />
            <Array as="points">
              <mxPoint x="758" y="450.03" />
              <mxPoint x="808" y="450.03" />
              <mxPoint x="808" y="495.03" />
            </Array>
          </mxGeometry>
        </mxCell>
        <mxCell id="kwDQs5xklp46Bv3Ky6c--84" value="commit" style="edgeLabel;resizable=0;html=1;align=center;verticalAlign=middle;fontSize=18;strokeWidth=3;fillColor=#FFFFFF;" parent="kwDQs5xklp46Bv3Ky6c--83" connectable="0" vertex="1">
          <mxGeometry relative="1" as="geometry" />
        </mxCell>
        <mxCell id="kwDQs5xklp46Bv3Ky6c--85" value="" style="endArrow=classic;html=1;rounded=0;strokeColor=#CCCCCC;strokeWidth=3;" parent="1" edge="1">
          <mxGeometry relative="1" as="geometry">
            <mxPoint x="710" y="489.88" as="sourcePoint" />
            <mxPoint x="570" y="489.88" as="targetPoint" />
          </mxGeometry>
        </mxCell>
        <mxCell id="kwDQs5xklp46Bv3Ky6c--86" value="&lt;div style=&quot;font-size: 18px;&quot;&gt;push&lt;/div&gt;" style="edgeLabel;resizable=0;html=1;align=center;verticalAlign=middle;fontSize=18;" parent="kwDQs5xklp46Bv3Ky6c--85" connectable="0" vertex="1">
          <mxGeometry relative="1" as="geometry" />
        </mxCell>
        <mxCell id="kwDQs5xklp46Bv3Ky6c--87" value="" style="endArrow=classic;html=1;rounded=0;strokeColor=#CCCCCC;strokeWidth=3;" parent="1" edge="1">
          <mxGeometry relative="1" as="geometry">
            <mxPoint x="510" y="491.0000000000001" as="sourcePoint" />
            <mxPoint x="370" y="491.0000000000001" as="targetPoint" />
          </mxGeometry>
        </mxCell>
        <mxCell id="kwDQs5xklp46Bv3Ky6c--88" value="pull" style="edgeLabel;resizable=0;html=1;align=center;verticalAlign=middle;fontSize=18;" parent="kwDQs5xklp46Bv3Ky6c--87" connectable="0" vertex="1">
          <mxGeometry relative="1" as="geometry" />
        </mxCell>
      </root>
    </mxGraphModel>
  </diagram>
</mxfile>
